<?xml version="1.0" encoding="utf-8"?>
<svg version="1.1" xmlns="http://www.w3.org/2000/svg" xmlns:xlink="http://www.w3.org/1999/xlink" height="35.45454406738281" width="30">
  <defs>
    <path id="path-0" opacity="1" fill-rule="evenodd" d="M15.000002756712547,-0.000004956332759320503 C11.056507006285301,-0.000004956332759320503 7.46639813482534,1.4099189547619062 4.787792578337303,3.9440274743160444 C1.8431040197588118,6.633772185238286 0.000004664061179937562,10.470862200649663 0.000004664061179937562,14.727269938381596 C0.000004664061179937562,14.920775225552006 0.003813983637428464,15.113412669094487 0.011362949383965315,15.305116465481206 C0.003813983637428464,15.5339572934231 0.000004664061179937562,15.764857104214116 0.000004664061179937562,15.997779658230229 C0.000004664061179937562,25.781727602871342 14.558826342222801,35.45454292574732 15.000002756712547,35.45454292574732 C15.441179171202293,35.45454292574732 30.000000849363914,25.781727602871342 30.000000849363914,15.997779658230229 C30.000000849363914,15.764857104214116 29.996191874144188,15.5339572934231 29.988642588255516,15.305116465481206 C29.996191874144188,15.113412669094487 30.000000849363914,14.920775225552006 30.000000849363914,14.727269938381596 C30.000000849363914,10.470862200649663 28.156901255247703,6.633772185238286 25.212212458250633,3.9440274743160444 C22.533606424925438,1.4099189547619062 18.943497553465477,-0.000004956332759320503 15.000002756712547,-0.000004956332759320503Z"/>
    <mask id="mask-1" maskUnits="userSpaceOnUse" maskContentUnits="userSpaceOnUse">
      <rect opacity="1" x="0" y="0" width="30" height="35.45454406738281" fill="black"/>
      <use xlink:href="#path-0" fill="white"/>
    </mask>
    <path id="path-2" opacity="1" fill-rule="evenodd" d="M24.173096990623733,13.225037214826127 C19.03788588762349,8.549773879401007 10.712131356247461,8.549773879401007 5.576924835188864,13.225037214826127 C5.3979862679745265,13.38793764958205 5.107876050533024,13.38793764958205 4.928937483318687,13.225037214826127 C4.750003498045999,13.062136780070208 4.750003498045999,12.797991952189415 4.928937483318687,12.635091517433494 C10.42200281103936,7.633981425050122 19.32801443283158,7.633981425050122 24.82107517861061,12.635091517433494 C25,12.797991952189415 25,13.062136780070208 24.82107517861061,13.225037214826127 C24.642150357221215,13.38793764958205 24.35202181201312,13.38793764958205 24.173096990623733,13.225037214826127Z"/>
    <path id="path-3" opacity="1" fill-rule="evenodd" d="M21.557862182681404,16.24899715018398 C17.93603737723987,12.627218226634618 12.063981051388966,12.627218226634618 8.44215624594743,16.24899715018398 C8.262987456957982,16.42816593917343 7.9724633156311695,16.42816593917343 7.7932899384525,16.24899715018398 C7.614111973084613,16.069828361194528 7.614111973084613,15.779304219867715 7.7932899384525,15.600135430878264 C11.773456910062155,11.619973047457815 18.226561518566683,11.619973047457815 22.206723901987118,15.600135430878264 C22.38589269097657,15.779304219867715 22.38589269097657,16.069828361194528 22.206723901987118,16.24899715018398 C22.027555112997668,16.42816593917343 21.737030971670855,16.42816593917343 21.557862182681404,16.24899715018398Z"/>
    <path id="path-4" opacity="1" fill-rule="evenodd" d="M18.804941769189632,19.001910681391955 C16.703551107034247,16.900520019236552 13.296453557026933,16.900520019236552 11.195062894871544,19.001910681391955 C11.015894105882095,19.181079470381405 10.725369964555282,19.181079470381405 10.546201175565834,19.001910681391955 C10.367032386576385,18.822741892402505 10.367032386576385,18.53221775107569 10.546201175565834,18.35304896208624 C13.00597529759231,15.89327484005975 16.99402936646887,15.89327484005975 19.453803488495346,18.35304896208624 C19.632972277484797,18.53221775107569 19.632972277484797,18.822741892402505 19.453803488495346,19.001910681391955 C19.274634699505896,19.181079470381405 18.984110558179083,19.181079470381405 18.804941769189632,19.001910681391955Z"/>
    <path id="path-5" opacity="1" fill-rule="evenodd" d="M16.83527801950262,22.190610424590083 C16.83527801950262,23.204233186780847 16.013579212329205,24.025886112062043 15.00000233203059,24.025886112062043 C13.986425451731975,24.025886112062043 13.16472664455856,23.204233186780847 13.16472664455856,22.190610424590083 C13.16472664455856,21.177033544291504 13.986425451731975,20.35533473711812 15.00000233203059,20.35533473711812 C16.013579212329205,20.35533473711812 16.83527801950262,21.177033544291504 16.83527801950262,22.190610424590083Z"/>
  </defs>
  <g opacity="1">
    <g opacity="1">
      <g opacity="1">
        <g>
          <use xlink:href="#path-0" fill="rgb(233,34,40)" fill-opacity="1"/>
          <use xlink:href="#path-0" fill-opacity="0" stroke="rgb(255,255,255)" stroke-opacity="1" stroke-width="2" mask="url(#mask-1)"/>
        </g>
      </g>
      <g opacity="1">
        <g opacity="1">
          <use xlink:href="#path-2" fill="rgb(255,255,255)" fill-opacity="1"/>
        </g>
        <g opacity="1">
          <use xlink:href="#path-3" fill="rgb(255,255,255)" fill-opacity="1"/>
        </g>
        <g opacity="1">
          <use xlink:href="#path-4" fill="rgb(255,255,255)" fill-opacity="1"/>
        </g>
        <g opacity="1">
          <use xlink:href="#path-5" fill="rgb(255,255,255)" fill-opacity="1"/>
        </g>
      </g>
    </g>
  </g>
</svg>