<svg width="50" height="50" viewBox="0 0 50 50" fill="none" xmlns="http://www.w3.org/2000/svg">
<path fill-rule="evenodd" clip-rule="evenodd" d="M18.7595 4.27484C19.1432 3.90173 19.7575 3.90948 20.1316 4.29216L21.1555 5.33954C22.8089 7.03085 22.8089 9.72845 21.1555 11.4198L20.927 11.6535C20.0085 12.5931 20.0085 14.0918 20.927 15.0314L22.2541 16.3889C22.6282 16.7716 22.6205 17.3843 22.2368 17.7574C21.8531 18.1305 21.2388 18.1228 20.8647 17.7401L19.5376 16.3825C17.8842 14.6912 17.8842 11.9936 19.5376 10.3023L19.766 10.0686C20.6846 9.12899 20.6846 7.63032 19.766 6.6907L18.7421 5.64332C18.368 5.26064 18.3758 4.64795 18.7595 4.27484ZM25.0664 4.27484C25.4501 3.90173 26.0644 3.90948 26.4385 4.29216L27.4624 5.33954C29.1158 7.03085 29.1158 9.72845 27.4624 11.4198L27.234 11.6535C26.3154 12.5931 26.3154 14.0918 27.234 15.0314L28.5611 16.3889C28.9352 16.7716 28.9274 17.3843 28.5437 17.7574C28.16 18.1305 27.5457 18.1228 27.1716 17.7401L25.8445 16.3825C24.1911 14.6912 24.1911 11.9936 25.8445 10.3023L26.073 10.0686C26.9915 9.12899 26.9915 7.63032 26.073 6.6907L25.0491 5.64332C24.675 5.26064 24.6828 4.64795 25.0664 4.27484ZM6.51978 22.3871C6.51978 21.3182 7.38861 20.4516 8.46038 20.4516H40.4116C44.5821 20.4516 48 23.7547 48 27.8744C48 31.9941 44.5821 35.2971 40.4116 35.2971H38.8545V35.1489C37.8188 36.9272 36.4742 38.504 34.8943 39.8064H46.1591C47.1783 39.8064 48.2127 40.6717 48.0039 41.8994C47.666 43.8853 46.4733 45.654 44.9318 46.9166C43.3906 48.179 41.4226 49 39.4391 49H9.60116C5.72656 49 1.64034 46.1473 1.01997 41.8782C0.844623 40.6715 1.85355 39.8064 2.88117 39.8064H12.8387C9.2496 36.8477 6.87498 32.4726 6.57738 27.5372C6.54009 27.4331 6.51978 27.321 6.51978 27.2041V22.3871ZM2.96291 41.7419C3.49505 44.841 6.58226 47.0645 9.60116 47.0645H39.4391C40.899 47.0645 42.4438 46.45 43.7002 45.4209C44.9079 44.4317 45.7768 43.1193 46.0594 41.7419H2.96291ZM31.4972 39.8064C35.9346 37.2723 38.9822 32.5989 39.2303 27.1997C39.2339 27.1218 39.2466 27.046 39.2673 26.9736V22.3871H8.46038V26.9576C8.48436 27.0356 8.49893 27.1176 8.50283 27.2022C8.75178 32.6003 11.7991 37.2727 16.2359 39.8064H31.4972ZM41.2079 22.441V27.2068C41.2079 27.3168 41.1899 27.4226 41.1566 27.5214C41.0339 29.587 40.5475 31.5546 39.7604 33.3617H40.4116C43.5513 33.3617 46.0594 30.8847 46.0594 27.8744C46.0594 25.1234 43.9649 22.8179 41.2079 22.441Z" fill="black"/>
</svg>
