<?xml version="1.0" encoding="utf-8"?>
<svg version="1.1" xmlns="http://www.w3.org/2000/svg" xmlns:xlink="http://www.w3.org/1999/xlink" height="26" width="22">
  <defs>
    <path id="path-0" opacity="1" fill-rule="evenodd" d="M11,0 C8.186983108520508,0 5.619172096252441,0.9783086180686951 3.6732664108276367,2.742067337036133 C1.4195096492767334,4.716787815093994 0,7.587455749511719 0,10.780488014221191 C0,10.925243377685547 0.0029174198862165213,11.0693359375 0.008697728626430035,11.212712287902832 C0.0029174198862165213,11.384142875671387 0,11.557149887084961 0,11.731707572937012 C0,18.90660285949707 10.676470756530762,26 11,26 C11.323529243469238,26 22,18.90660285949707 22,11.731707572937012 C22,11.557149887084961 21.99708366394043,11.384142875671387 21.991302490234375,11.212712287902832 C21.99708366394043,11.0693359375 22,10.925243377685547 22,10.780488014221191 C22,7.587455749511719 20.58049201965332,4.716787815093994 18.32673454284668,2.742067575454712 C16.380828857421875,0.9783086180686951 13.813016891479492,0 11,0Z"/>
    <filter id="filter-1" filterUnits="userSpaceOnUse" x="-50%" y="-50%" width="200%" height="200%">
      <feOffset in="SourceAlpha" result="shadow-1-feOffset-shadow" dx="0" dy="2"/>
      <feGaussianBlur in="shadow-1-feOffset-shadow" result="shadow-1-feGaussianBlur-shadow" stdDeviation="2.5"/>
      <feColorMatrix in="shadow-1-feGaussianBlur-shadow" result="shadow-1-feColorMatrix-shadow" type="matrix" values="0 0 0 0 0  0 0 0 0 0  0 0 0 0 0  0 0 0 0.3 0"/>
    </filter>
    <mask id="mask-2" maskUnits="userSpaceOnUse" maskContentUnits="userSpaceOnUse">
      <rect opacity="1" x="0" y="0" width="22" height="26" fill="black"/>
      <use xlink:href="#path-0" fill="white"/>
    </mask>
    <rect id="rect-3" opacity="1" x="3.9960203170776367" y="6.676613807678223" width="14.080666542053223" height="8.247315406799316"/>
    <path id="path-4" opacity="1" fill-rule="evenodd" d="M6.229593276977539,6.676613807678223 C5.908714294433594,6.676613807678223 5.648594379425049,6.92696475982666 5.648594379425049,7.235758304595947 L5.648594379425049,8.627336502075195 C5.648594379425049,8.661107063293457 5.654675006866455,8.693490982055664 5.665839195251465,8.723565101623535 C5.754938125610352,10.149347305297852 6.465878486633301,11.413265228271484 7.540423393249512,12.268000602722168 L4.5592265129089355,12.268000602722168 C4.251566410064697,12.268000602722168 3.949502468109131,12.51791763305664 4.001999855041504,12.866519927978516 C4.187733173370361,14.099815368652344 5.411111354827881,14.923929214477539 6.571132659912109,14.923929214477539 L15.504348754882812,14.923929214477539 C16.098190307617188,14.923929214477539 16.687393188476562,14.686751365661621 17.148815155029297,14.322057723999023 C17.610326766967773,13.957306861877441 17.967409133911133,13.446349143981934 18.068574905395508,12.872644424438477 C18.131086349487305,12.517975807189941 17.821395874023438,12.268000602722168 17.51625633239746,12.268000602722168 L14.143674850463867,12.268000602722168 C14.616683959960938,11.891752243041992 15.019245147705078,11.43623161315918 15.329324722290039,10.922500610351562 L15.329324722290039,10.965313911437988 L15.79550552368164,10.965313911437988 C17.044116973876953,10.965313911437988 18.067405700683594,10.011114120483398 18.067405700683594,8.820978164672852 C18.067405700683594,7.630842685699463 17.044116973876953,6.676613807678223 15.79550552368164,6.676613807678223 L6.229593276977539,6.676613807678223 L6.229593276977539,6.676613807678223ZM13.12661361694336,12.268000602722168 C14.455131530761719,11.535926818847656 15.367555618286133,10.185833930969238 15.441835403442383,8.626065254211426 C15.442913055419922,8.603560447692871 15.44671630859375,8.581663131713867 15.452913284301758,8.560747146606445 L15.452913284301758,7.235758304595947 L6.229592800140381,7.235758304595947 L6.229592800140381,8.556124687194824 C6.236772060394287,8.578658103942871 6.241134166717529,8.602347373962402 6.242301940917969,8.626787185668945 C6.316835403442383,10.186238288879395 7.229176044464111,11.536043167114258 8.557515144348145,12.268000602722168 L13.12661361694336,12.268000602722168 L13.12661361694336,12.268000602722168ZM16.033912658691406,8.628116607666016 L16.033912658691406,7.25132942199707 C16.859333038330078,7.3602118492126465 17.486408233642578,8.0262451171875 17.486408233642578,8.820978164672852 C17.486408233642578,9.690620422363281 16.735504150390625,10.406198501586914 15.795506477355957,10.406198501586914 L15.600543022155762,10.406198501586914 C15.836194038391113,9.884147644042969 15.981817245483398,9.315729141235352 16.018552780151367,8.719000816345215 C16.028522491455078,8.690458297729492 16.033912658691406,8.659893989562988 16.033912658691406,8.628116607666016 L16.033912658691406,8.628116607666016ZM6.571132183074951,14.364784240722656 C5.667300224304199,14.364784240722656 4.743016719818115,13.722439765930176 4.583698749542236,12.827144622802734 L17.486408233642578,12.827144622802734 C17.40180015563965,13.22506046295166 17.141658782958984,13.604198455810547 16.78008460998535,13.88996696472168 C16.403928756713867,14.187262535095215 15.941429138183594,14.364784240722656 15.504348754882812,14.364784240722656 L6.571132183074951,14.364784240722656 L6.571132183074951,14.364784240722656Z"/>
  </defs>
  <g opacity="1">
    <g opacity="1">
      <g opacity="1">
        <g>
          <use xlink:href="#path-0" fill="black" filter="url(#filter-1)" stroke="black" stroke-opacity="1" stroke-width="1"/>
          <use xlink:href="#path-0" fill="rgb(110,45,25)" fill-opacity="1"/>
          <use xlink:href="#path-0" fill-opacity="0" stroke="rgb(255,255,255)" stroke-opacity="1" stroke-width="2" mask="url(#mask-2)"/>
        </g>
      </g>
      <g opacity="1">
        <g opacity="1">
          <use xlink:href="#path-4" fill="rgb(255,255,255)" fill-opacity="1"/>
        </g>
      </g>
    </g>
  </g>
</svg>