<?xml version="1.0" encoding="utf-8"?>
<svg version="1.1" xmlns="http://www.w3.org/2000/svg" xmlns:xlink="http://www.w3.org/1999/xlink" height="35.45454406738281" width="30">
  <defs>
    <path id="path-0" opacity="1" fill-rule="evenodd" d="M15.00000466406118,-0.000004956332759320503 C11.164073839781395,-0.000004956332759320503 7.662514582274071,1.334051778705998 5.009006872770897,3.73917608538477 C1.935700908300987,6.431976607235356 0.000004664061179937562,10.346525004299565 0.000004664061179937562,14.700660517605229 C0.000004664061179937562,14.898053934963627 0.00398296303819734,15.094543269070073 0.011865199541261973,15.290056994350834 C0.00398296303819734,15.5238254574856 0.000004664061179937562,15.759744456203862 0.000004664061179937562,15.997777750881596 C0.000004664061179937562,25.78172569552271 14.558828249571434,35.45453911105005 15.00000466406118,35.45453911105005 C15.441181078550926,35.45453911105005 30.00000466406118,25.78172569552271 30.00000466406118,15.997777750881596 C30.00000466406118,15.759744456203862 29.996027842161766,15.5238254574856 29.988144770262352,15.290056994350834 C29.996027842161766,15.094543269070073 30.00000466406118,14.898053934963627 30.00000466406118,14.700660517605229 C30.00000466406118,10.346525004299565 28.064307108519188,6.431976607235356 24.991001978514305,3.73917608538477 C22.33749474584829,1.334051778705998 18.83593644201528,-0.000004956332759320503 15.00000466406118,-0.000004956332759320503Z"/>
    <mask id="mask-1" maskUnits="userSpaceOnUse" maskContentUnits="userSpaceOnUse">
      <rect opacity="1" x="0" y="0" width="30" height="35.45454406738281" fill="black"/>
      <use xlink:href="#path-0" fill="white"/>
    </mask>
    <path id="path-2" opacity="1" fill-rule="evenodd" d="M15.331911087036133,3.779735565185547 C15.42064380645752,3.2667129039764404 15.901721954345703,2.9240286350250244 16.40630340576172,3.014481544494629 L17.319522857666016,3.178197145462036 C17.823692321777344,3.2685787677764893 18.160446166992188,3.7572176456451416 18.071849822998047,4.269827842712402 L17.10262680053711,9.876888275146484 L19.33082389831543,9.876888275146484 C19.971006393432617,9.876888275146484 20.490001678466797,10.40453052520752 20.490001678466797,11.055379867553711 L20.490001678466797,11.38626480102539 C20.490001678466797,11.927580833435059 20.130983352661133,12.383679389953613 19.641780853271484,12.521820068359375 L18.75371551513672,26.18381690979004 L10.837919235229492,26.18381690979004 L9.951414108276367,12.545854568481445 C9.41033935546875,12.446309089660645 9,11.96496295928955 9,11.38626480102539 L9,11.055379867553711 C9,10.40453052520752 9.51899528503418,9.876888275146484 10.15917682647705,9.876888275146484 L14.277854919433594,9.876888275146484 L15.331911087036133,3.779735565185547 L15.331911087036133,3.779735565185547ZM15.27452278137207,9.80296516418457 L16.294519424438477,3.9429378509521484 L17.213993072509766,4.106653690338135 L16.222652435302734,9.80296516418457 L15.27452278137207,9.80296516418457 L15.27452278137207,9.80296516418457ZM9.93361759185791,11.055379867553711 C9.93361759185791,10.925219535827637 10.03811264038086,10.819700241088867 10.167057037353516,10.819700241088867 L19.401046752929688,10.819700241088867 C19.529991149902344,10.819700241088867 19.634485244750977,10.925219535827637 19.634485244750977,11.055379867553711 L19.634485244750977,11.38626480102539 C19.634485244750977,11.516425132751465 19.529991149902344,11.621944427490234 19.401046752929688,11.621944427490234 L10.167057037353516,11.621944427490234 C10.03811264038086,11.621944427490234 9.93361759185791,11.516425132751465 9.93361759185791,11.38626480102539 L9.93361759185791,11.055379867553711 L9.93361759185791,11.055379867553711ZM10.899124145507812,12.631353378295898 L11.039668083190918,14.778511047363281 C11.735687255859375,14.488555908203125 12.590089797973633,14.672152519226074 13.090197563171387,15.34549617767334 C13.409599304199219,15.775552749633789 14.04844856262207,15.775552749633789 14.367849349975586,15.34549617767334 L14.402419090270996,15.299013137817383 C15.112534523010254,14.342854499816895 16.53281021118164,14.342854499816895 17.242971420288086,15.299013137817383 L17.33595848083496,15.424226760864258 C17.64084815979004,15.83468246459961 18.234590530395508,15.868097305297852 18.583248138427734,15.504171371459961 L18.77130126953125,12.631353378295898 L10.899124145507812,12.631353378295898 L10.899124145507812,12.631353378295898ZM11.110194206237793,15.855964660644531 L11.724410057067871,25.24105453491211 L17.946014404296875,25.24105453491211 L18.510177612304688,16.621152877807617 C17.831768035888672,16.83088493347168 17.053529739379883,16.61517906188965 16.58905601501465,15.989858627319336 L16.49606704711914,15.864645004272461 C16.159381866455078,15.411346435546875 15.486008644104004,15.411346435546875 15.149322509765625,15.864645004272461 L15.114751815795898,15.911173820495605 C14.42192268371582,16.844045639038086 13.03617000579834,16.844045639038086 12.343294143676758,15.911173820495605 C12.03586196899414,15.497264862060547 11.438145637512207,15.484757423400879 11.110194206237793,15.855964660644531 L11.110194206237793,15.855964660644531ZM15.487395286560059,17.808185577392578 C15.71066665649414,17.938344955444336 15.996191024780273,17.861108779907227 16.125089645385742,17.635602951049805 C16.253986358642578,17.41014289855957 16.17749786376953,17.121868133544922 15.95422649383545,16.99170684814453 C15.730955123901367,16.861499786376953 15.445430755615234,16.938783645629883 15.316533088684082,17.164243698120117 C15.18763542175293,17.38970184326172 15.264123916625977,17.677978515625 15.487395286560059,17.808185577392578 L15.487395286560059,17.808185577392578ZM17.540050506591797,18.460575103759766 C17.411151885986328,18.686033248901367 17.125627517700195,18.76327133178711 16.902355194091797,18.63311004638672 C16.67908477783203,18.50295066833496 16.602596282958984,18.214628219604492 16.73149299621582,17.989168167114258 C16.860437393188477,17.763710021972656 17.145915985107422,17.686471939086914 17.36918830871582,17.816633224487305 C17.592458724975586,17.946792602539062 17.668947219848633,18.23511505126953 17.540050506591797,18.460575103759766 L17.540050506591797,18.460575103759766ZM14.670475006103516,19.236961364746094 C14.893746376037598,19.367168426513672 15.17927074432373,19.289884567260742 15.308168411254883,19.06442642211914 C15.437066078186035,18.838966369628906 15.360577583312988,18.550691604614258 15.137306213378906,18.420530319213867 C14.914034843444824,18.29032325744629 14.628510475158691,18.36760711669922 14.499612808227539,18.593067169189453 C14.370715141296387,18.818525314331055 14.447203636169434,19.106801986694336 14.670475006103516,19.236961364746094 L14.670475006103516,19.236961364746094ZM12.438591957092285,19.840862274169922 C12.661863327026367,19.9710693359375 12.947341918945312,19.89378547668457 13.076286315917969,19.66832733154297 C13.205183029174805,19.442867279052734 13.12864875793457,19.154592514038086 12.905377388000488,19.024431228637695 C12.682106018066406,18.894224166870117 12.396627426147461,18.971508026123047 12.267729759216309,19.19696807861328 C12.138786315917969,19.422426223754883 12.215320587158203,19.710702896118164 12.438591957092285,19.840862274169922 L12.438591957092285,19.840862274169922ZM16.08543586730957,20.061887741088867 C16.308706283569336,20.192049026489258 16.5942325592041,20.114810943603516 16.723129272460938,19.889352798461914 C16.852027893066406,19.66389274597168 16.77553939819336,19.37561798095703 16.55226707458496,19.245410919189453 C16.328996658325195,19.115249633789062 16.04347038269043,19.192487716674805 15.914573669433594,19.417993545532227 C15.785676002502441,19.64340591430664 15.862164497375488,19.93172836303711 16.08543586730957,20.061887741088867 L16.08543586730957,20.061887741088867ZM13.853553771972656,20.665834426879883 C14.076825141906738,20.795995712280273 14.362303733825684,20.71875762939453 14.491247177124023,20.49329948425293 C14.620144844055176,20.267839431762695 14.543656349182129,19.979516983032227 14.320384979248047,19.84935760498047 C14.097067832946777,19.719196319580078 13.811589241027832,19.79643440246582 13.68269157409668,20.021892547607422 C13.553793907165527,20.247352600097656 13.630282402038574,20.535675048828125 13.853553771972656,20.665834426879883 L13.853553771972656,20.665834426879883Z"/>
  </defs>
  <g opacity="1">
    <g opacity="1">
      <g opacity="1">
        <g opacity="1">
          <g>
            <use xlink:href="#path-0" fill="rgb(210,25,31)" fill-opacity="1"/>
            <use xlink:href="#path-0" fill-opacity="0" stroke="rgb(255,255,255)" stroke-opacity="1" stroke-width="2" mask="url(#mask-1)"/>
          </g>
        </g>
        <g opacity="1">
          <use xlink:href="#path-2" fill="rgb(255,255,255)" fill-opacity="1"/>
        </g>
      </g>
    </g>
  </g>
</svg>