<?xml version="1.0" encoding="utf-8"?>
<svg version="1.1" xmlns="http://www.w3.org/2000/svg" xmlns:xlink="http://www.w3.org/1999/xlink" height="35.45454545454547" width="30">
  <defs>
    <path id="path-0" opacity="1" fill-rule="evenodd" d="M15.000000000000128,2.842170943040401e-14 C11.163982044566882,2.842170943040401e-14 7.662360451438332,1.334131414240085 5.008829290216738,3.7393465909091184 C1.935632879083922,6.432141390713803 1.1368683772161603e-13,10.34662420099435 1.1368683772161603e-13,14.700664173473033 C1.1368683772161603e-13,14.898064353249312 0.003974220969573918,15.094549005681845 0.011860240589602332,15.290076515891357 C0.003974220969573918,15.523806485262808 1.1368683772161603e-13,15.759742043235114 1.1368683772161603e-13,15.997779152610109 C1.1368683772161603e-13,25.781728571111532 14.558819857510779,35.45454545454549 15.000000000000128,35.45454545454549 C15.44118014248947,35.45454545454549 30.000000000000142,25.781728571111532 30.000000000000142,15.997779152610109 C30.000000000000142,15.759742043235114 29.996004971591045,15.523806485262808 29.98813975941064,15.290034901012097 C29.996004971591045,15.094549005681845 30.000000000000142,14.898064353249312 30.000000000000142,14.700664173473033 C30.000000000000142,10.34662420099435 28.064367120916327,6.432141390713803 24.99117070978351,3.7393465909091184 C22.33763954856192,1.334131414240085 18.83601795543336,2.842170943040401e-14 15.000000000000128,2.842170943040401e-14Z"/>
    <mask id="mask-1" maskUnits="userSpaceOnUse" maskContentUnits="userSpaceOnUse">
      <rect opacity="1" x="0" y="0" width="30" height="35.45454545454547" fill="black"/>
      <use xlink:href="#path-0" fill="white"/>
    </mask>
    <rect id="rect-2" opacity="1" x="4.573793199928332" y="9.73873721136897" width="20.5" height="11.714385986328125"/>
    <path id="path-3" opacity="1" fill-rule="evenodd" d="M7.825654772193957,9.73873721136897 C7.358491686256457,9.73873721136897 6.979783800514269,10.09432803168147 6.979783800514269,10.532941923283033 L6.979783800514269,12.509519682072096 C6.979783800514269,12.557493314884596 6.988633898170519,12.60348330511897 7.004884508522082,12.64620791449397 C7.134599474342394,14.671369657658033 8.16966417160802,16.466611967228346 9.734086779029894,17.68067751898616 L5.393770006568957,17.68067751898616 C4.945848253639269,17.68067751898616 4.506074694068957,18.03565798773616 4.582505968483019,18.530805692814283 C4.852906969459582,20.28256045355647 6.634019640358019,21.453123197697096 8.322892931373644,21.453123197697096 L21.328737047584582,21.453123197697096 C22.193300035865832,21.453123197697096 23.051118639381457,21.11623965277522 23.722902086647082,20.59823428168147 C24.394838121803332,20.080137357853346 24.914705065162707,19.35438357367366 25.061982897193957,18.53950320257991 C25.153016832740832,18.03573428168147 24.702119615943957,17.68067751898616 24.257875231178332,17.68067751898616 L19.347749498756457,17.68067751898616 C20.036378649147082,17.14625369086116 20.622468737037707,16.49923525824397 21.073915270240832,15.769544706486158 L21.073915270240832,15.83035098090022 L21.752626207740832,15.83035098090022 C23.570497301490832,15.83035098090022 25.060304430397082,14.475019560001783 25.060304430397082,12.784559354923658 C25.060304430397082,11.094114408634596 23.570497301490832,9.73873721136897 21.752626207740832,9.73873721136897 L7.825654772193957,9.73873721136897 L7.825654772193957,9.73873721136897ZM17.867006090553332,17.68067751898616 C19.801179674537707,16.640852079533033 21.129579332740832,14.723188505314283 21.237733629615832,12.50771914496272 C21.239290026100207,12.475751981876783 21.244844225318957,12.444654569767408 21.253846910865832,12.41494570746272 L21.253846910865832,10.532941923283033 L7.825654772193957,10.532941923283033 L7.825654772193957,12.408369169376783 C7.836107042701769,12.440382108829908 7.842454698951769,12.47402773871272 7.844163683326769,12.508741483829908 C7.952668932350207,14.723768339298658 9.280946520240832,16.64100466742366 11.214875963600207,17.68067751898616 L17.867006090553332,17.68067751898616 L17.867006090553332,17.68067751898616ZM22.099733141334582,12.510633573673658 L22.099733141334582,10.555067167423658 C23.301454332740832,10.709714994572096 24.214418199928332,11.655744657658033 24.214418199928332,12.78457461371272 C24.214418199928332,14.01980410590022 23.121156481178332,15.036207304142408 21.752626207740832,15.036207304142408 L21.468782213600207,15.036207304142408 C21.811860826881457,14.294691190861158 22.023866442115832,13.487318143986158 22.077363756568957,12.639722929142408 C22.091890123756457,12.599180326603346 22.099733141334582,12.555769071720533 22.099733141334582,12.510633573673658 L22.099733141334582,12.510633573673658ZM8.322892931373644,20.658933744572096 C7.007005480201769,20.658933744572096 5.661348131568957,19.74654971136897 5.429399279029894,18.47488223090022 L24.214418199928332,18.47488223090022 C24.091249254615832,19.040083036564283 23.712495592506457,19.578596220158033 23.186097887428332,19.984495268009596 C22.638429430397082,20.406782255314283 21.965089586647082,20.658933744572096 21.328737047584582,20.658933744572096 L8.322892931373644,20.658933744572096 L8.322892931373644,20.658933744572096Z"/>
  </defs>
  <g opacity="1">
    <g opacity="1">
      <g>
        <use xlink:href="#path-0" fill="rgb(110,45,25)" fill-opacity="1"/>
        <use xlink:href="#path-0" fill-opacity="0" stroke="rgb(255,255,255)" stroke-opacity="1" stroke-width="2" mask="url(#mask-1)"/>
      </g>
    </g>
    <g opacity="1">
      <g opacity="1">
        <use xlink:href="#path-3" fill="rgb(255,255,255)" fill-opacity="1"/>
      </g>
    </g>
  </g>
</svg>