<?xml version="1.0" encoding="utf-8"?>
<svg version="1.1" xmlns="http://www.w3.org/2000/svg" xmlns:xlink="http://www.w3.org/1999/xlink" height="36" width="30">
  <defs>
    <path id="path-0" opacity="1" fill-rule="evenodd" d="M15.00000466406118,-0.000004956332759320503 C10.979189768431297,-0.000004956332759320503 7.325755491850487,1.4882985353469849 4.631293669340721,4.157367706298828 C1.7779476791597517,6.883925914764404 0.000004664061179937562,10.72303056716919 0.000004664061179937562,14.973389148712158 C0.000004664061179937562,15.167009830474854 0.003694223470574798,15.359777927398682 0.011006928046754183,15.551626682281494 C0.003694220676607074,15.780369281768799 0.000004664061179937562,16.01113748550415 0.000004664061179937562,16.243896961212158 C0.000004664061179937562,26.178368091583252 14.558828249571434,35.99999475479126 15.00000466406118,35.99999475479126 C15.441181078550926,35.99999475479126 30.00000466406118,26.178368091583252 30.00000466406118,16.243896961212158 C30.00000466406118,16.01113748550415 29.99631585180532,15.780369281768799 29.989003077147117,15.551624774932861 C29.99631585180532,15.359777927398682 30.00000466406118,15.167009830474854 30.00000466406118,14.973389148712158 C30.00000466406118,10.72303056716919 28.222062006590477,6.883925914764404 25.368716135618797,4.157367706298828 C22.67425431310903,1.4882985353469849 19.020819559691063,-0.000004956332759320503 15.00000466406118,-0.000004956332759320503Z"/>
    <mask id="mask-1" maskUnits="userSpaceOnUse" maskContentUnits="userSpaceOnUse">
      <rect opacity="1" x="0" y="0" width="30" height="36" fill="black"/>
      <use xlink:href="#path-0" fill="white"/>
    </mask>
    <path id="path-2" opacity="1" fill-rule="evenodd" d="M7.926453590393066,7.151516437530518 C7.926453590393066,6.515551567077637 8.453171730041504,6 9.102907180786133,6 C9.752662658691406,6 10.2793607711792,6.515551567077637 10.2793607711792,7.151516437530518 L10.2793607711792,10.222227096557617 L11.847965240478516,10.222227096557617 L11.847965240478516,7.151516437530518 C11.847965240478516,6.515551567077637 12.374664306640625,6 13.024418830871582,6 C13.674174308776855,6 14.200872421264648,6.515551567077637 14.200872421264648,7.151516437530518 L14.200872421264648,10.222227096557617 L15.377326011657715,10.222227096557617 L15.377326011657715,13.420896530151367 C15.377326011657715,14.856598854064941 14.590278625488281,16.113391876220703 13.416570663452148,16.79106903076172 L13.416570663452148,18.85858154296875 L11.411853790283203,18.85858154296875 L11.411893844604492,21.430715560913086 C11.411893844604492,22.923185348510742 12.647953987121582,24.13309669494629 14.172755241394043,24.13309669494629 C15.697595596313477,24.13309669494629 16.933656692504883,22.923185348510742 16.933656692504883,21.430715560913086 L16.933656692504883,15.148151397705078 C16.933656692504883,13.599613189697266 18.141952514648438,12.30133056640625 19.684871673583984,12.30133056640625 C21.227752685546875,12.30133056640625 22.436046600341797,13.599613189697266 22.436046600341797,15.148151397705078 L22.436046600341797,25.000001907348633 L21.651744842529297,25.000001907348633 L21.651744842529297,15.148151397705078 C21.651744842529297,13.97616195678711 20.7476806640625,13.069008827209473 19.684871673583984,13.069008827209473 C18.622024536132812,13.069008827209473 17.717960357666016,13.97616195678711 17.717960357666016,15.148151397705078 L17.717960357666016,21.430715560913086 C17.717960357666016,23.347156524658203 16.130725860595703,24.900774002075195 14.172755241394043,24.900774002075195 C12.214822769165039,24.900774002075195 10.627591133117676,23.347156524658203 10.627591133117676,21.430715560913086 L10.627552032470703,18.85858154296875 L8.710756301879883,18.85858154296875 L8.710756301879883,16.79106903076172 C7.537039756774902,16.113391876220703 6.75,14.856598854064941 6.75,13.420896530151367 L6.75,10.222227096557617 L7.926453590393066,10.222227096557617 L7.926453590393066,7.151516437530518 L7.926453590393066,7.151516437530518ZM9.4950590133667,10.222227096557617 L9.4950590133667,7.151516437530518 C9.4950590133667,6.9395270347595215 9.31949234008789,6.7676777839660645 9.102907180786133,6.7676777839660645 C8.886322021484375,6.7676777839660645 8.710756301879883,6.9395270347595215 8.710756301879883,7.151516437530518 L8.710756301879883,10.222227096557617 L9.4950590133667,10.222227096557617 L9.4950590133667,10.222227096557617ZM13.416570663452148,7.151516437530518 L13.416570663452148,10.222227096557617 L12.632267951965332,10.222227096557617 L12.632267951965332,7.151516437530518 C12.632267951965332,6.9395270347595215 12.807833671569824,6.7676777839660645 13.024418830871582,6.7676777839660645 C13.24100399017334,6.7676777839660645 13.416570663452148,6.9395270347595215 13.416570663452148,7.151516437530518 L13.416570663452148,7.151516437530518ZM7.534302234649658,13.420896530151367 L7.534302234649658,10.989904403686523 L14.593023300170898,10.989904403686523 L14.593023300170898,13.420896530151367 C14.593023300170898,15.155131340026855 13.16943645477295,16.5555477142334 11.420167922973633,16.5555477142334 L10.707158088684082,16.5555477142334 C8.957889556884766,16.5555477142334 7.534302234649658,15.155131340026855 7.534302234649658,13.420896530151367 L7.534302234649658,13.420896530151367ZM9.495058059692383,17.323225021362305 L9.495058059692383,18.09090232849121 L12.632266998291016,18.09090232849121 L12.632266998291016,17.323225021362305 L9.495058059692383,17.323225021362305 L9.495058059692383,17.323225021362305Z"/>
  </defs>
  <g opacity="1">
    <g opacity="1">
      <g opacity="1">
        <g opacity="1">
          <g>
            <use xlink:href="#path-0" fill="rgb(242,148,48)" fill-opacity="1"/>
            <use xlink:href="#path-0" fill-opacity="0" stroke="rgb(255,255,255)" stroke-opacity="1" stroke-width="2" mask="url(#mask-1)"/>
          </g>
        </g>
      </g>
      <g opacity="1">
        <g opacity="1">
          <g opacity="1">
            <use xlink:href="#path-2" fill="rgb(255,255,255)" fill-opacity="1"/>
          </g>
        </g>
      </g>
    </g>
  </g>
</svg>